<?xml version="1.0" encoding="utf-8"?>
<!-- Generator: Adobe Illustrator 21.1.0, SVG Export Plug-In . SVG Version: 6.00 Build 0)  -->
<svg version="1.1" id="Layer_1" xmlns="http://www.w3.org/2000/svg" xmlns:xlink="http://www.w3.org/1999/xlink" x="0px" y="0px"
	 viewBox="0 0 500 200" enable-background="new 0 0 500 200" xml:space="preserve">
<g>
	<g>
		<g>
			<path fill="#ffffff" d="M48.5,157.7h-5.8v15.9h-2.7v-15.9h-5.8v-2.2h14.2V157.7z"/>
			<path fill="#ffffff" d="M77.4,164.5c0,1.4-0.2,2.6-0.6,3.7c-0.4,1.1-1,2.1-1.8,2.9c-0.8,0.8-1.7,1.5-2.8,1.9
				c-1.1,0.5-2.3,0.7-3.7,0.7c-1.3,0-2.6-0.2-3.7-0.7c-1.1-0.5-2.1-1.1-2.8-1.9c-0.8-0.8-1.4-1.8-1.8-2.9c-0.4-1.1-0.7-2.4-0.7-3.7
				c0-1.3,0.2-2.6,0.7-3.7c0.4-1.1,1.1-2.1,1.8-2.9c0.8-0.8,1.7-1.5,2.8-1.9c1.1-0.5,2.3-0.7,3.7-0.7c1.3,0,2.6,0.2,3.7,0.7
				c1.1,0.5,2,1.1,2.8,1.9c0.8,0.8,1.4,1.8,1.8,2.9C77.2,161.9,77.4,163.1,77.4,164.5z M74.6,164.5c0-1.1-0.1-2-0.4-2.9
				c-0.3-0.9-0.7-1.6-1.3-2.2c-0.5-0.6-1.2-1.1-2-1.4c-0.8-0.3-1.6-0.5-2.6-0.5s-1.8,0.2-2.6,0.5c-0.8,0.3-1.4,0.8-2,1.4
				c-0.5,0.6-1,1.3-1.3,2.2c-0.3,0.9-0.4,1.8-0.4,2.9c0,1.1,0.1,2.1,0.4,2.9c0.3,0.9,0.7,1.6,1.3,2.2c0.5,0.6,1.2,1.1,2,1.4
				c0.8,0.3,1.6,0.5,2.6,0.5s1.8-0.2,2.6-0.5c0.8-0.3,1.4-0.8,2-1.4c0.5-0.6,1-1.3,1.3-2.2C74.5,166.5,74.6,165.6,74.6,164.5z"/>
			<path fill="#ffffff" d="M93.6,163.3h0.9c0.3,0,0.6,0,0.8-0.1c0.2-0.1,0.4-0.2,0.5-0.4l5.8-6.7c0.2-0.2,0.4-0.4,0.6-0.5
				c0.2-0.1,0.4-0.1,0.7-0.1h2.3l-6.7,7.7c-0.2,0.2-0.3,0.4-0.5,0.5c-0.2,0.1-0.3,0.2-0.5,0.3c0.5,0.2,0.9,0.5,1.2,1l7,8.6h-2.3
				c-0.2,0-0.3,0-0.4,0c-0.1,0-0.2-0.1-0.3-0.1c-0.1,0-0.2-0.1-0.2-0.2c-0.1-0.1-0.1-0.1-0.2-0.2l-6-7.1c-0.1-0.1-0.2-0.2-0.3-0.3
				c-0.1-0.1-0.2-0.1-0.3-0.2c-0.1,0-0.2-0.1-0.4-0.1c-0.1,0-0.3,0-0.5,0h-1.1v8.2h-2.7v-18.1h2.7V163.3z"/>
			<path fill="#ffffff" d="M129.1,171.4l0,2.2h-11.2v-18.1h11.2v2.2h-8.5v5.7h6.9v2.1h-6.9v5.9H129.1z"/>
			<path fill="#ffffff" d="M157.4,155.4v18.1H156c-0.2,0-0.4,0-0.5-0.1c-0.1-0.1-0.3-0.2-0.4-0.4l-10.2-13.2c0,0.2,0,0.5,0,0.7
				c0,0.2,0,0.4,0,0.6v12.4h-2.4v-18.1h1.4c0.2,0,0.4,0,0.5,0.1c0.1,0.1,0.2,0.2,0.4,0.4l10.3,13.3c0-0.2,0-0.5-0.1-0.7
				c0-0.2,0-0.4,0-0.6v-12.3H157.4z"/>
			<path fill="#ffffff" d="M206.4,173.5h-2.1c-0.2,0-0.4-0.1-0.6-0.2c-0.2-0.1-0.3-0.3-0.3-0.5l-1.6-4.2h-8l-1.6,4.2
				c-0.1,0.2-0.2,0.3-0.3,0.4c-0.2,0.1-0.4,0.2-0.6,0.2h-2.1l7.2-18.1h2.7L206.4,173.5z M201.1,166.8l-2.7-7
				c-0.2-0.5-0.4-1.1-0.6-1.8c-0.1,0.4-0.2,0.7-0.3,1c-0.1,0.3-0.2,0.6-0.3,0.8l-2.7,7H201.1z"/>
			<path fill="#ffffff" d="M228.1,158.4c-0.1,0.1-0.2,0.2-0.3,0.3c-0.1,0.1-0.2,0.1-0.4,0.1c-0.2,0-0.3-0.1-0.5-0.2
				c-0.2-0.1-0.4-0.3-0.7-0.5c-0.3-0.2-0.6-0.3-1-0.5c-0.4-0.1-0.9-0.2-1.5-0.2c-0.5,0-1,0.1-1.4,0.2s-0.7,0.3-1,0.6
				s-0.5,0.5-0.6,0.8c-0.1,0.3-0.2,0.7-0.2,1.1c0,0.5,0.1,0.9,0.4,1.2s0.6,0.6,1,0.8c0.4,0.2,0.9,0.4,1.4,0.6c0.5,0.2,1,0.3,1.6,0.5
				c0.5,0.2,1.1,0.4,1.6,0.6c0.5,0.2,1,0.5,1.4,0.9c0.4,0.4,0.7,0.8,1,1.3c0.2,0.5,0.4,1.2,0.4,1.9c0,0.8-0.1,1.5-0.4,2.2
				c-0.3,0.7-0.7,1.3-1.2,1.8c-0.5,0.5-1.2,0.9-1.9,1.2c-0.8,0.3-1.6,0.4-2.6,0.4c-0.6,0-1.1-0.1-1.7-0.2c-0.5-0.1-1.1-0.3-1.6-0.5
				c-0.5-0.2-0.9-0.5-1.4-0.7c-0.4-0.3-0.8-0.6-1.1-1l0.8-1.3c0.1-0.1,0.2-0.2,0.3-0.3c0.1-0.1,0.2-0.1,0.4-0.1
				c0.2,0,0.4,0.1,0.6,0.3c0.2,0.2,0.5,0.4,0.9,0.6c0.3,0.2,0.7,0.4,1.2,0.6c0.5,0.2,1.1,0.3,1.7,0.3c0.6,0,1.1-0.1,1.5-0.2
				s0.8-0.4,1.1-0.6c0.3-0.3,0.5-0.6,0.7-1c0.2-0.4,0.2-0.8,0.2-1.3c0-0.5-0.1-1-0.4-1.3c-0.2-0.3-0.6-0.6-1-0.8
				c-0.4-0.2-0.9-0.4-1.4-0.6c-0.5-0.2-1-0.3-1.6-0.5c-0.5-0.2-1.1-0.4-1.6-0.6s-1-0.5-1.4-0.9c-0.4-0.4-0.7-0.8-1-1.4
				c-0.2-0.6-0.4-1.2-0.4-2c0-0.6,0.1-1.3,0.4-1.9c0.3-0.6,0.6-1.1,1.1-1.6c0.5-0.5,1.1-0.8,1.8-1.1c0.7-0.3,1.5-0.4,2.4-0.4
				c1,0,2,0.2,2.8,0.5c0.9,0.3,1.6,0.8,2.2,1.4L228.1,158.4z"/>
			<path fill="#ffffff" d="M277,173.5H275c-0.2,0-0.4-0.1-0.6-0.2c-0.2-0.1-0.3-0.3-0.3-0.5l-1.6-4.2h-8l-1.6,4.2
				c-0.1,0.2-0.2,0.3-0.3,0.4c-0.2,0.1-0.4,0.2-0.6,0.2h-2.1l7.2-18.1h2.7L277,173.5z M271.7,166.8l-2.7-7c-0.2-0.5-0.4-1.1-0.6-1.8
				c-0.1,0.4-0.2,0.7-0.3,1c-0.1,0.3-0.2,0.6-0.3,0.8l-2.7,7H271.7z"/>
			<path fill="#ffffff" d="M318.3,158.4c-0.1,0.1-0.2,0.2-0.3,0.3c-0.1,0.1-0.2,0.1-0.4,0.1c-0.2,0-0.3-0.1-0.5-0.2
				c-0.2-0.1-0.4-0.3-0.7-0.5c-0.3-0.2-0.6-0.3-1-0.5s-0.9-0.2-1.5-0.2c-0.5,0-1,0.1-1.4,0.2c-0.4,0.1-0.7,0.3-1,0.6
				s-0.5,0.5-0.6,0.8c-0.1,0.3-0.2,0.7-0.2,1.1c0,0.5,0.1,0.9,0.4,1.2s0.6,0.6,1,0.8c0.4,0.2,0.9,0.4,1.4,0.6c0.5,0.2,1,0.3,1.6,0.5
				c0.5,0.2,1.1,0.4,1.6,0.6c0.5,0.2,1,0.5,1.4,0.9c0.4,0.4,0.7,0.8,1,1.3c0.2,0.5,0.4,1.2,0.4,1.9c0,0.8-0.1,1.5-0.4,2.2
				c-0.3,0.7-0.7,1.3-1.2,1.8c-0.5,0.5-1.2,0.9-1.9,1.2c-0.8,0.3-1.6,0.4-2.6,0.4c-0.6,0-1.1-0.1-1.7-0.2c-0.5-0.1-1.1-0.3-1.6-0.5
				c-0.5-0.2-0.9-0.5-1.4-0.7c-0.4-0.3-0.8-0.6-1.1-1l0.8-1.3c0.1-0.1,0.2-0.2,0.3-0.3c0.1-0.1,0.2-0.1,0.4-0.1
				c0.2,0,0.4,0.1,0.6,0.3c0.2,0.2,0.5,0.4,0.9,0.6c0.3,0.2,0.7,0.4,1.2,0.6c0.5,0.2,1.1,0.3,1.7,0.3c0.6,0,1.1-0.1,1.5-0.2
				c0.4-0.1,0.8-0.4,1.1-0.6c0.3-0.3,0.5-0.6,0.7-1c0.2-0.4,0.2-0.8,0.2-1.3c0-0.5-0.1-1-0.4-1.3c-0.2-0.3-0.6-0.6-1-0.8
				c-0.4-0.2-0.9-0.4-1.4-0.6c-0.5-0.2-1-0.3-1.6-0.5c-0.5-0.2-1.1-0.4-1.6-0.6c-0.5-0.2-1-0.5-1.4-0.9c-0.4-0.4-0.7-0.8-1-1.4
				c-0.2-0.6-0.4-1.2-0.4-2c0-0.6,0.1-1.3,0.4-1.9c0.3-0.6,0.6-1.1,1.1-1.6c0.5-0.5,1.1-0.8,1.8-1.1c0.7-0.3,1.5-0.4,2.4-0.4
				c1,0,2,0.2,2.8,0.5c0.9,0.3,1.6,0.8,2.2,1.4L318.3,158.4z"/>
			<path fill="#ffffff" d="M344,171.4l0,2.2h-11.2v-18.1H344v2.2h-8.5v5.7h6.9v2.1h-6.9v5.9H344z"/>
			<path fill="#ffffff" d="M371,173.5h-2.4c-0.5,0-0.8-0.2-1-0.6l-4.5-6.3c-0.1-0.2-0.3-0.4-0.5-0.4c-0.2-0.1-0.4-0.1-0.8-0.1h-1.8
				v7.4h-2.7v-18.1h5.2c1.2,0,2.2,0.1,3,0.4s1.5,0.6,2.1,1c0.6,0.4,1,1,1.2,1.6c0.3,0.6,0.4,1.3,0.4,2.1c0,0.6-0.1,1.2-0.3,1.8
				c-0.2,0.6-0.5,1.1-0.9,1.5c-0.4,0.4-0.8,0.8-1.4,1.1c-0.5,0.3-1.2,0.6-1.8,0.7c0.3,0.2,0.6,0.5,0.9,0.8L371,173.5z M362.5,164.2
				c0.7,0,1.3-0.1,1.8-0.3c0.5-0.2,1-0.4,1.3-0.7c0.4-0.3,0.6-0.7,0.8-1.1c0.2-0.4,0.3-0.9,0.3-1.4c0-1-0.3-1.8-1-2.4
				c-0.7-0.5-1.7-0.8-3.1-0.8h-2.5v6.6H362.5z"/>
			<path fill="#ffffff" d="M397.9,155.4l-7.4,18.1h-2.4l-7.4-18.1h2.1c0.2,0,0.4,0.1,0.6,0.2s0.3,0.3,0.3,0.5l4.9,12.3
				c0.1,0.3,0.2,0.6,0.3,1c0.1,0.4,0.2,0.7,0.3,1.1c0.1-0.4,0.2-0.8,0.3-1.1c0.1-0.4,0.2-0.7,0.3-1l4.9-12.3
				c0.1-0.2,0.2-0.3,0.3-0.4c0.2-0.1,0.3-0.2,0.6-0.2H397.9z"/>
			<path fill="#ffffff" d="M412.9,173.5h-2.7v-18.1h2.7V173.5z"/>
			<path fill="#ffffff" d="M440.2,169.7c0.2,0,0.3,0.1,0.4,0.2l1.1,1.2c-0.7,0.9-1.6,1.6-2.7,2c-1.1,0.5-2.3,0.7-3.8,0.7
				c-1.3,0-2.5-0.2-3.6-0.7c-1.1-0.5-2-1.1-2.7-1.9c-0.8-0.8-1.3-1.8-1.7-2.9c-0.4-1.1-0.6-2.4-0.6-3.7c0-1.4,0.2-2.6,0.6-3.7
				c0.4-1.1,1-2.1,1.8-2.9s1.7-1.5,2.8-1.9c1.1-0.5,2.3-0.7,3.6-0.7c1.3,0,2.4,0.2,3.4,0.6c1,0.4,1.9,1,2.6,1.7l-0.9,1.2
				c-0.1,0.1-0.1,0.2-0.2,0.2c-0.1,0.1-0.2,0.1-0.3,0.1c-0.2,0-0.3-0.1-0.6-0.2c-0.2-0.2-0.5-0.3-0.8-0.5c-0.3-0.2-0.8-0.4-1.3-0.5
				c-0.5-0.2-1.2-0.2-1.9-0.2c-0.9,0-1.7,0.2-2.5,0.5c-0.7,0.3-1.4,0.8-1.9,1.4c-0.5,0.6-1,1.3-1.3,2.2c-0.3,0.9-0.4,1.8-0.4,2.9
				c0,1.1,0.2,2.1,0.5,2.9c0.3,0.9,0.7,1.6,1.3,2.2c0.5,0.6,1.2,1.1,1.9,1.4c0.7,0.3,1.5,0.5,2.4,0.5c0.5,0,1,0,1.4-0.1
				c0.4-0.1,0.8-0.2,1.1-0.3c0.3-0.1,0.7-0.3,1-0.5c0.3-0.2,0.6-0.4,0.9-0.7c0.1-0.1,0.1-0.1,0.2-0.1
				C440,169.7,440.1,169.7,440.2,169.7z"/>
			<path fill="#ffffff" d="M465.7,171.4l0,2.2h-11.2v-18.1h11.2v2.2h-8.5v5.7h6.9v2.1h-6.9v5.9H465.7z"/>
		</g>
		<g>
			<g>
				<rect x="34.6" y="26.3" fill="#DD0B15" width="23.3" height="23.3"/>
				<polygon fill="#ffffff" points="57.9,117.4 57.9,96.2 103,96.2 103,72.9 34.6,72.9 34.6,140.8 125.7,140.8 125.7,117.4 				"/>
				<g>
					<polygon fill="#ffffff" points="374.3,72.9 374.3,96.2 442.1,96.2 442.1,117.4 397,117.4 397,140.8 465.4,140.8 465.4,72.9 
											"/>
					
						<rect x="374.3" y="27.5" transform="matrix(-1 -1.224647e-16 1.224647e-16 -1 816.7813 78.2236)" fill="#ffffff" width="68.2" height="23.3"/>
				</g>
				<g>
					<path fill="#ffffff" d="M147.9,72.9v67.9h68.4v-22.4H239V72.9H147.9z M215.7,117.4h-44.5V96.2h44.5V117.4z"/>
					<rect x="147.9" y="26.3" fill="#ffffff" width="91.1" height="23.3"/>
				</g>
				<g>
					<path fill="#ffffff" d="M261.6,72.9v67.9H330v-22.4h22.7V72.9H261.6z M329.3,117.4h-44.5V96.2h44.5V117.4z"/>
					<rect x="261.6" y="26.3" fill="#ffffff" width="91.1" height="23.3"/>
				</g>
			</g>
		</g>
	</g>
	<rect x="172.8" y="163" fill="#ffffff" width="3.7" height="3.7"/>
	<rect x="243.2" y="163" fill="#ffffff" width="3.7" height="3.7"/>
	<rect x="289.9" y="163" fill="#ffffff" width="3.7" height="3.7"/>
</g>
</svg>
